<?xml version="1.0" encoding="UTF-8"?>
<svg id="_1" data-name="1" xmlns="http://www.w3.org/2000/svg" viewBox="0 0 420.86 172.68">
  <defs>
    <style>
      .cls-1 {
        font-size: 80px;
      }

      .cls-1, .cls-2 {
        font-family: AGaramondPro-Regular, 'Adobe Garamond Pro';
      }

      .cls-3 {
        letter-spacing: -.04em;
      }

      .cls-4 {
        letter-spacing: .01em;
      }

      .cls-2 {
        fill: #080101;
        font-size: 24px;
      }

      .cls-5 {
        letter-spacing: -.03em;
      }

      .cls-6 {
        letter-spacing: -.12em;
      }

      .cls-7 {
        letter-spacing: -.07em;
      }

      .cls-8 {
        font-family: JMHCthulhumbus-Regular, 'JMHCthulhumbus Regular';
        font-size: 72px;
      }

      .cls-9 {
        letter-spacing: 0em;
      }
    </style>
  </defs>
  <path d="M71.39,0c.16,.21,.29,.46,.49,.63,7.27,6.45,14.55,12.89,21.82,19.33,.09,.08,.19,.13,.45,.3V9.66h12.04c0,.41,0,.83,0,1.25,0,6.52,.02,13.04-.02,19.56,0,.89,.28,1.46,.93,2.04,10.36,9.23,20.7,18.49,31.04,27.74,.61,.55,1.22,1.1,1.87,1.69-2.13,.15-4.11,.22-6.07,.47-1.01,.13-2.02,.48-2.97,.88-2.45,1.04-3.67,2.91-3.68,5.63-.04,17.92-.11,35.83-.17,53.75,0,2.99,0,5.99,0,9.12-1.43,.08-2.72,.16-4.14,.25,0-.6,0-1.07,0-1.54,0-17.28,0-34.56,0-51.83,0-1-.01-2.01-.22-2.98-.12-.54-.57-1.32-1-1.41-.53-.11-1.39,.21-1.75,.65-1.62,1.94-3.77,2.9-6.07,3.67-.3,.1-.61,.15-1.03,.25,0-1.19-.06-2.31,.01-3.42,.1-1.48-.24-2.83-.82-4.18-4.27-9.93-10.56-18.14-20.08-23.57-7.46-4.26-15.55-5.64-24.04-5.1-5.83,.37-11.48,1.55-16.78,4.1-10.02,4.82-16.34,12.86-19.8,23.24-2.54,7.61-3.53,15.44-2.23,23.41,2.42,14.82,13.72,29.1,31.22,32.15,4.56,.79,9.17,.65,13.74,.1,2.64-.32,5.26-.87,7.83-1.53,1.67-.43,3.18-1.31,4.21-2.97,.28,3.76,.56,7.52,.85,11.35H14.75v-1.24c0-19.56,0-39.12,0-58.67,0-.84,.19-1.68,.12-2.51-.17-2.27-1.53-3.81-3.37-4.96-2.84-1.79-6.06-2.41-9.32-2.87-.66-.09-1.33-.17-2.2-.27,.44-.41,.73-.72,1.05-.99C23.87,41.07,46.7,21.25,69.52,1.42,70.02,.98,70.45,.47,70.91,0c.16,0,.32,0,.48,0Z"/>
  <text class="cls-1" transform="translate(132.07 132.42)"><tspan x="0" y="0">BA</tspan><tspan class="cls-3" x="98.24" y="0">R</tspan><tspan x="146.96" y="0">OSS</tspan></text>
  <text class="cls-8" transform="translate(46.73 118) scale(1.19 1)"><tspan x="0" y="0">5</tspan></text>
  <text class="cls-2" transform="translate(13.9 164.19)"><tspan x="0" y="0">ING</tspan><tspan class="cls-7" x="44.83" y="0">A</tspan><tspan x="58.1" y="0">T</tspan><tspan class="cls-4" x="73.94" y="0">L</tspan><tspan x="87.5" y="0">ANHASZNOSÍ</tspan><tspan class="cls-5" x="240.38" y="0">T</tspan><tspan class="cls-9" x="255.45" y="0">Ó KF</tspan><tspan class="cls-6" x="309.64" y="0">T</tspan><tspan x="322.6" y="0">.</tspan></text>
  <text class="cls-8" transform="translate(103.4 137.18)"><tspan x="0" y="0">1</tspan></text>
</svg>